<?xml version="1.0" encoding="UTF-8"?><svg id="uuid-324c3465-d110-459d-886b-bc03aab7ed9a" xmlns="http://www.w3.org/2000/svg" viewBox="0 0 588.08 426.35"><path d="M11.95,260.9s43.68-26.69,49.34-49.34c0,0-84.62-18.65-54.19-126.05,34.4-121.42,286.47-117.57,305.75,42.7,10.93,90.84-130.52,81.54-226.48,86.59,0,0-16.99,29.93-74.42,46.11Z" style="fill:#95c11f; stroke:#1d1d1b; stroke-miterlimit:10;"/><path d="M119.19,132.83l-9,45.96h-6.06l9-45.96h-30.12v-9.97h32.07l8.02-39.31h-30.9v-9.97h32.86l7.63-37.55h6.06l-7.63,37.55h50.26l7.24-37.55h6.06l-7.24,37.55h30.31v9.97h-32.27l-7.63,39.31h30.7v9.97h-32.66l-8.8,45.96h-6.06l8.8-45.96h-50.65ZM121.14,122.86h50.65l7.63-39.31h-50.26l-8.02,39.31Z" style="fill:#003e2c;"/><path d="M564.86,425.85s-28.45-5.13-34.16-27.95c0,0,70.25-15.63,54.6-127-21.09-150.14-353.87-116.85-308.05,43.02,29.27,102.13,143.39,84.95,228.18,87.24,0,0-.2,24.69,59.42,24.69Z" style="fill:#5ec1ef; stroke:#1d1d1b; stroke-miterlimit:10;"/><path d="M446.65,357.42l1.96-28.76h-30.07l-1.96,28.76h-5.88l1.96-28.76h-12.42v-12.42h13.08l3.27-33.99h-16.34v-12.42h17l1.96-26.8h5.88l-1.96,26.8h30.07l1.96-26.8h5.88l-1.96,26.8h12.42v12.42h-13.07l-3.27,33.99h16.34v12.42h-17l-1.96,28.76h-5.88ZM422.46,282.24l-3.27,33.99h30.07l3.27-33.99h-30.07Z" style="fill:#263d91;"/></svg>