<?xml version="1.0" encoding="UTF-8"?>
<svg id="Camada_1" data-name="Camada 1" xmlns="http://www.w3.org/2000/svg" xmlns:xlink="http://www.w3.org/1999/xlink" viewBox="0 0 538.43 110.95">
  <defs>
    <style>
      .cls-1 {
        fill: none;
      }

      .cls-1, .cls-2 {
        stroke-width: 0px;
      }

      .cls-2 {
        fill: url(#Gradiente_sem_nome_30);
      }

      .cls-3 {
        clip-path: url(#clippath);
      }
    </style>
    <clipPath id="clippath">
      <path class="cls-1" d="M86.23,15.9c8.23,0,12.35,5.24,12.35,11.23s-4.87,10.1-6.36,10.1c-1.12,0-2.62-1.12-2.62-2.06,0-2.06,3.56-3.74,3.56-7.86,0-3.18-2.06-6.36-6.92-6.36-13.1,0-44.9,23.01-44.9,39.1,0,2.06,1.12,3.18,2.81,3.18,3.55,0,12.72-7.3,17.59-12.16,2.43-2.43,3.18-4.87,5.24-7.11,2.25-2.43,10.1-5.43,12.54-5.43,2.06,0,2.81,1.12,2.81,2.81,0,1.5-.37,3.74-.37,5.8,0,8.98,4.86,14.22,16.46,14.22,10.48,0,21.52-5.05,37.79-12.72,2.99-1.31,4.87,1.12,1.68,2.99-18.52,8.79-31.81,15.72-49.21,15.72-11.04,0-17.59-2.99-23.39-12.35-6.74,5.05-20.96,15.16-30.5,15.16-6.55,0-9.36-3.18-9.36-7.86,0-8.05,8.42-19.65,20.21-29.19-11.79,4.86-30.12,12.91-42.29,18.52-2.99,1.31-4.86-1.12-1.68-2.99C27.29,36.11,68.26,15.9,86.23,15.9ZM136,48.65c15.53-7.3,32.18-15.34,44.16-21.52,7.67-3.93,14.03-6.92,19.08-6.92,5.43,0,8.98,3.18,8.98,9.73,0,3.55-.75,8.42-1.87,13.66,15.72-14.22,31.43-26.94,39.48-26.94,6.92,0,11.41,5.05,11.41,13.29,0,10.29-10.1,26.94-25.63,30.87,2.25.56,4.68.75,8.42.75,12.35,0,26.38-3.74,45.84-12.91,2.99-1.31,4.87,1.12,1.68,2.99-17.96,8.42-32.74,13.47-50.14,13.47-13.1,0-28.81-2.81-28.81-6.36,0-1.12,1.68-2.06,2.99-2.06,2.06,0,2.43,2.06,6.36,2.06,10.66,0,26.94-20.21,26.94-33.87,0-2.06-1.12-3.18-2.62-3.18-3.37,0-18.52,10.66-37.79,29-7.11,25.82-23.76,60.25-39.48,60.25-5.24,0-8.98-2.81-8.98-7.67,0-7.67,15.16-23.58,34.24-43.41,3.18-9.36,5.43-18.34,5.43-25.26,0-3.93-1.31-6.17-4.12-6.17-1.87,0-5.43.94-14.03,4.49-7.3,2.99-24.14,11.23-39.85,18.71-2.99,1.31-4.87-1.12-1.68-2.99ZM187.45,67.54c-15.34,16.46-25.26,30.12-25.26,34.61,0,1.68.56,2.43,1.68,2.43,5.05,0,16.09-17.96,23.58-37.05ZM285.87,48.65c15.53-7.3,32.18-15.34,44.16-21.52,7.67-3.93,14.03-6.92,19.08-6.92,5.43,0,8.98,3.18,8.98,9.73,0,3.55-.75,8.42-1.87,13.66,15.72-14.22,31.43-26.94,39.48-26.94,6.92,0,11.41,5.05,11.41,13.29,0,10.29-10.1,26.94-25.63,30.87,2.25.56,4.68.75,8.42.75,12.35,0,26.38-3.74,45.84-12.91,2.99-1.31,4.87,1.12,1.68,2.99-17.96,8.42-32.74,13.47-50.14,13.47-13.1,0-28.81-2.81-28.81-6.36,0-1.12,1.68-2.06,2.99-2.06,2.06,0,2.43,2.06,6.36,2.06,10.66,0,26.94-20.21,26.94-33.87,0-2.06-1.12-3.18-2.62-3.18-3.37,0-18.52,10.66-37.79,29-7.11,25.82-23.76,60.25-39.48,60.25-5.24,0-8.98-2.81-8.98-7.67,0-7.67,15.16-23.58,34.24-43.41,3.18-9.36,5.43-18.34,5.43-25.26,0-3.93-1.31-6.17-4.12-6.17-1.87,0-5.43.94-14.03,4.49-7.3,2.99-24.14,11.23-39.85,18.71-2.99,1.31-4.87-1.12-1.68-2.99ZM337.32,67.54c-15.34,16.46-25.26,30.12-25.26,34.61,0,1.68.56,2.43,1.68,2.43,5.05,0,16.09-17.96,23.58-37.05ZM435.74,48.65c14.59-6.92,30.5-14.41,40.79-20.21-.19-1.5-.19-2.99-.19-4.68,0-16.09,11.97-23.76,20.21-23.76,4.86,0,7.3,2.81,7.3,7.11,0,5.05-5.24,11.41-14.97,18.15.75,9.92,4.12,15.9,4.12,27.5,0,2.62-.38,5.05-.94,7.3,14.78-1.68,29.38-5.05,43.03-11.41,2.99-1.31,4.87,1.12,1.68,2.99-14.41,6.92-31.62,10.67-46.03,12.54-3.74,8.98-11.97,14.78-21.7,14.78-9.17,0-14.97-3.93-14.97-8.79,0-5.8,10.48-7.48,25.45-8.79,0-1.12.19-2.43.19-3.74,0-8.79-1.87-16.47-2.81-25.07-11.04,6.17-25.07,12.91-39.48,19.08-2.99,1.31-4.87-1.12-1.68-2.99ZM478.59,65.49c-11.97,1.31-18.9,2.62-18.9,5.05,0,1.68,3.74,3.18,8.42,3.18s8.79-2.62,10.48-8.23ZM488.69,20.39c5.61-4.68,9.92-9.73,9.92-12.91,0-1.12-.56-1.68-2.06-1.68-2.81,0-7.86,5.24-7.86,14.59Z"/>
    </clipPath>
    <linearGradient id="Gradiente_sem_nome_30" data-name="Gradiente sem nome 30" x1="49.87" y1="-38.18" x2="477.28" y2="105.81" gradientUnits="userSpaceOnUse">
      <stop offset="0" stop-color="#29235c"/>
      <stop offset=".23" stop-color="#36a9e1"/>
      <stop offset=".23" stop-color="#36aad5"/>
      <stop offset=".43" stop-color="#3aaa35"/>
      <stop offset=".63" stop-color="#fcea10"/>
      <stop offset=".81" stop-color="#f19b2d"/>
      <stop offset="1" stop-color="#e6332a"/>
    </linearGradient>
  </defs>
  <g class="cls-3">
    <rect class="cls-2" x="-14.32" y="-62.42" width="578.13" height="200"/>
  </g>
</svg>