<?xml version="1.0" encoding="UTF-8"?>
<svg id="Camada_2" data-name="Camada 2" xmlns="http://www.w3.org/2000/svg" viewBox="0 0 1051.22 696.44">
  <defs>
    <style>
      .cls-1 {
        fill: #000;
        stroke-width: 0px;
      }
    </style>
  </defs>
  <g id="Camada_1-2" data-name="Camada 1">
    <path class="cls-1" d="M33.82,594.65l-4.05,4.8-1.93,2.28c-.87,1.03-1.88,2.06-2.61,3.19-1.43,2.23-2.11,4.98-2.58,7.53-.65,3.54-.23,8.41,1.3,11.71l1.64,3.04c1.13,1.72,2.63,2.99,4.51,3.81,2.04.39,3.77.97,5.82-.07,1-.51,1.98-1.3,2.85-2,.79-.64,1.57-1.31,2.35-1.96l4.49-3.74c2.72-2.27,4.27-6.79,4.8-10.11.63-3.97.29-9.14-1.42-12.85-1.36-2.95-3.42-6.5-6.75-7.52-2.84-.87-6.35-.55-8.41,1.89h0Z"/>
    <path class="cls-1" d="M24.16,635.87c16.68-11.16,33.37-21.96,49.37-34.1,15.97-12.11,31.93-24.23,47.88-36.36,31.82-24.2,63.57-48.35,96.42-71.14,15.82-10.97,31.13-21.51,47.02-32.27,16.93-11.47,33.04-24.1,49.37-36.41,31.99-24.11,63.92-48.31,95.87-72.46,35.91-27.15,72.17-53.83,108.08-80.98l-13.93,3.13c19.25,8.99,38.58,17.7,57.47,27.45,9.31,4.81,18.48,9.89,27.59,15.08,4.42,2.52,8.83,5.08,13.21,7.67,2.32,1.37,4.63,2.76,6.94,4.14.45.27,3.08,1.86.45.26,1.54.93,3.07,1.88,4.6,2.82,35.64,21.96,70.25,45.41,103.08,71.4,35.36,27.98,68.91,58.25,102.34,88.5,32.8,29.68,65.93,58.86,97.53,89.84,17.75,17.4,35.34,34.98,52.34,53.12s32.56,35.48,48.78,54.87c2.59,3.09,5.67,6.09,10.02,5.98,5.25-.13,8.69-4.32,10.75-8.64,4.98-10.44,2.9-22.66-4.68-31.12-59.78-66.69-124.5-128.78-189.79-190.01-16.31-15.29-33.4-29.76-49.61-45.15-17.12-16.27-34.42-32.39-52.08-48.08-32.17-28.59-66.18-55.22-101.94-79.18-20.86-13.98-42.49-26.88-64.39-39.17-21.03-11.8-42.24-23.58-64.28-33.41-4.99-2.23-10.05.1-13.93,3.13-63.18,49.41-125.98,99.29-189.14,148.71-15.59,12.2-31.15,24.41-46.73,36.63-16.01,12.55-30.98,26.56-46.5,39.72-15.49,13.15-30.76,26.6-46.73,39.16-15.56,12.23-31.11,24.47-46.73,36.62-17.72,13.78-35.45,27.57-53.15,41.37-8.99,7.01-18.28,13.77-26.85,21.28s-17.32,15.53-26.07,23.19c-4.42,3.87-4.87,11.7-3.2,16.86,1.16,3.6,5.66,10.82,10.6,7.52h0Z"/>
    <path class="cls-1" d="M207.2,218.12c34.15,34.02,72.98,63.5,111.45,92.43,38.31,28.82,77.45,56.54,117.35,83.12,11.43,7.62,22.77,15.38,34.21,22.99,12.05,8.01,24.06,17.06,36.9,23.76,3.61,1.88,9.74.15,12.3-2.77,8.54-9.69,19.39-17.27,29.86-24.76,9.72-6.95,17.77-12.19,28.54-18.98,22.58-14.24,45.35-28.19,68.03-42.27,46.38-28.77,92.75-57.54,139.13-86.32,26.03-16.15,52.03-32.32,78.02-48.53,9.06-5.65,12.08-17.8,9.64-27.92-1.62-6.71-9.06-21.1-18.55-15.26-92.89,57.11-185.74,114.31-278.36,171.87-12.28,7.63-24.48,15.41-36.45,23.53-6.15,4.17-12.23,8.42-18.18,12.87-2.93,2.19-5.83,4.42-8.69,6.69-.95.76-1.9,1.53-2.85,2.29,1.57-1.26-3.01,2.04-3.6,2.43l12.42,2.16c-5.48-3.94-11.6-7.14-17.39-10.62-2.38-1.43-4.76-2.87-7.14-4.31-3.04-1.84-1.59-.97-.92-.56-1.85-1.13-3.7-2.26-5.55-3.39-10.04-6.15-20.09-12.29-29.98-18.68-20.1-12.99-39.88-26.53-59.51-40.22-39.03-27.2-77.12-55.66-114.76-84.74-21.19-16.38-41.96-33.22-63.91-48.58-7.22-5.05-14.67-.45-17.23,7.38-2.94,9-1.65,19.55,5.21,26.39h0Z"/>
    <path class="cls-1" d="M500.79,303.54l-1.66.4c-3.43,1.7-6.12,4.21-8.07,7.52-2.34,3.92-3.84,8.15-4.5,12.68-.77,5.07-.64,10.11.37,15.13.88,4.49,2.58,8.64,5.11,12.44l1.3,2.03c2.22,3.38,5.17,5.87,8.86,7.48,3.52,1.34,7,1.25,10.44-.26,3.6-1.79,6.43-4.42,8.48-7.91,2.46-4.12,4.04-8.56,4.73-13.32.81-5.32.68-10.63-.39-15.9-.92-4.72-2.71-9.08-5.37-13.08-2.22-3.38-5.17-5.87-8.86-7.48-3.52-1.34-7-1.25-10.44.26h0Z"/>
    <path class="cls-1" d="M292.39,100.49c5.88,12.51,11.83,25.07,18.97,36.92,3.08,5.11,5.94,10.11,9.45,14.93,4.03,5.53,7.06,12.31,12.99,16.07s11.24,3.61,15.85-2.09c5.08-6.29,6.03-15.28,4.56-23.03s-4.86-13.91-8.07-20.84c-2.61-5.62-5.25-11.15-8.01-16.71-3.18-6.42-6.45-12.76-9.86-19.07-2.92-5.4,1.37,2.61-.3-.56-.74-1.41-1.5-2.81-2.24-4.21-1.48-2.81-2.95-5.63-4.41-8.46-2.4-4.66-5.25-9.76-10.53-11.74-4.44-1.66-9.79-.4-13.13,2.95-8.59,8.61-10.37,24.98-5.27,35.84h0Z"/>
    <path class="cls-1" d="M440.93.1l-.47-.05c-8.7-.95-14.38,11.82-15.17,18.49-1.61,13.6,1.15,27.63,3.82,40.97,2.11,10.57,4.65,21.03,7.27,31.49s4.93,20.23,7.04,30.42c2.61,12.58,3.38,25.6,10.65,36.64,4.7,7.13,15.09,7.89,19.29-.47,2.12-4.21,4-8.48,4.58-13.23.27-1.3.19-1.11-.23.59-.92,3.43-.55,1.88,1.14-4.65.35-2.74.61-5.77.52-8.55-.22-7.12-1.45-14.39-2.51-21.44-1.65-10.95-4.16-21.7-6.8-32.44-2.56-10.43-5.35-20.81-7.78-31.27-2.71-11.68-4.18-23.65-7.67-35.12-1.92-6.29-7.33-10.68-13.68-11.37h0Z"/>
    <path class="cls-1" d="M613.42,28.62c-5.56,8.31-5.84,19.2-7.43,28.83-1.18,7.14-2.89,13.63-1.34,21.03,1.69,8.03,6.38,16.64,15.49,17.09,6.48.32,11.44-6.78,13.19-12.11,5.94-18.08,9.54-43.2-4.83-58.19-4.91-5.12-11.91-1.39-15.09,3.35h0Z"/>
    <path class="cls-1" d="M752.71,42.07c-13.76,18.32-24.69,38.61-37.02,57.9-6.19,9.69-12.68,19.19-18.9,28.86-7.07,10.98-14.67,21.98-19.87,33.97-3.15,7.27-2.14,19.17,2.8,25.6,4.47,5.81,10.87,7.77,16.92,2.9,5.21-4.19,8.93-9.55,12.92-14.87,1.66-2.21,3.33-4.42,4.95-6.67,3.37-4.66-1.25,1.2.85-1.16,1.71-1.93,3.26-3.97,4.74-6.07,6.83-9.64,13.12-19.7,19.34-29.74,13.18-21.29,26.12-42.88,35.06-66.35,3.18-8.35,1.89-19.68-4.12-26.41s-12.85-4.37-17.67,2.04h0Z"/>
    <path class="cls-1" d="M381.27,445.74l4.12,5.04-3.64-4.08c1.14,1.75,2.52,3.4,4.13,4.72,2.67,2.36,5.78,3.55,9.33,3.58l4.84-1.12c3.36-1.67,5.99-4.12,7.9-7.37l2.72-5.71c1.58-4.58,2.3-9.29,2.15-14.13.03-3.7-.58-7.27-1.84-10.7-.74-3.21-2.07-6.17-4.01-8.88-1.49-2.5-3.5-4.37-6.03-5.62-2.04-1.61-4.41-2.35-7.11-2.23-2.7,0-5.03.87-6.99,2.57-2.47,1.37-4.39,3.34-5.75,5.91-1.8,2.8-2.99,5.82-3.56,9.07-1.02,4.06-1.63,6.34-1.32,11.11l2.07-13.6c-1.58,4.54-2.29,8.95-2.17,13.77.06,2.39.33,4.76.81,7.09.75,3.82,2.2,7.35,4.35,10.58h0Z"/>
    <path class="cls-1" d="M357.56,514.18c.62-.62,1.25-1.52,1.7-2.07,2.1-2.6,1.28-1.3,2.78-4.46.54-.81.94-1.67,1.21-2.58l1.44-5.76.41-6.38c0-.06,0-.11-.01-.17-.01-.48-.63-5.95-.73-6.42,0-.05-.02-.1-.03-.15l-1.7-5.61c-.02-.05-.04-.11-.06-.16-.43-.81-.87-1.62-1.3-2.42-.35-.86-.78-1.66-1.31-2.41-1.73-2.64-4.03-4.58-6.91-5.84-2.06-.92-4.1-1.01-6.12-.27-2.19.25-4.07,1.22-5.63,2.91-2.43,2.42-4.2,5.25-5.29,8.51-.02.06-.04.11-.07.17l2.3-4.81s-.06.09-.09.14l3.05-3.77c-.63.73-.89,1.02-1.78,2.12-2.1,2.59-1.27,1.3-2.78,4.46-.49,1.03-.85,1.77-1.27,2.69l2.34-4.9-.06.11c-1.54,2.4-2.56,4.99-3.06,7.77-.94,2.99-1.31,6.07-1.13,9.24l.72,6.34c.47,2.91,1.48,5.59,3.01,8.06.64,1.64,1.62,3.04,2.92,4.22,1.38,1.9,3.19,3.29,5.44,4.15l4.19.75c3.04-.17,5.65-1.33,7.84-3.46h0Z"/>
    <path class="cls-1" d="M439.94,581.94c2.93,0,5.45-.94,7.58-2.79,2.67-1.48,4.75-3.62,6.23-6.4,1.95-3.04,3.24-6.31,3.86-9.82,1.18-3.78,1.66-7.68,1.42-11.68l-.91-8.01c-.93-4.77-2.74-9.17-5.43-13.21l-4.13-4.63c-2.89-2.55-6.26-3.85-10.11-3.88-2.93,0-5.45.94-7.58,2.79-2.67,1.48-4.75,3.62-6.23,6.4-1.95,3.04-3.24,6.31-3.86,9.82-1.18,3.78-1.66,7.68-1.42,11.68l.91,8.01c.93,4.77,2.74,9.17,5.43,13.21l4.13,4.63c2.89,2.55,6.26,3.85,10.11,3.88h0Z"/>
    <path class="cls-1" d="M451.62,480.01l-.18-.76-1.77-5.82c-.92-2.62-2.36-4.89-4.32-6.78-.91-1.39-2.12-2.41-3.63-3.07-1.8-1.42-3.88-2.07-6.26-1.96l-4.26.98-3.79,2.57c-1.97,1.82-3.43,3.96-4.37,6.43-1.45,2.61-2.34,5.41-2.68,8.42l-.19.77c-.67,4.42-.56,8.82.32,13.2.77,3.92,2.25,7.54,4.46,10.86l3.4,3.8c2.38,2.1,5.15,3.16,8.31,3.19,2.41,0,4.48-.77,6.23-2.29,2.2-1.22,3.91-2.97,5.12-5.26,2.04-3.42,3.35-7.11,3.92-11.06.67-4.42.56-8.82-.32-13.2h0Z"/>
    <path class="cls-1" d="M319.76,644.32c3.07,0,5.72-.99,7.95-2.93,2.81-1.56,4.99-3.8,6.54-6.72,2.05-3.19,3.4-6.62,4.05-10.31,1.24-3.97,1.74-8.06,1.49-12.26l-.95-8.41c-.98-5-2.88-9.62-5.7-13.86l-4.34-4.85c-3.04-2.68-6.57-4.04-10.61-4.07-3.07,0-5.72.99-7.95,2.93-2.81,1.56-4.99,3.8-6.54,6.72-2.05,3.19-3.4,6.62-4.05,10.31-1.24,3.97-1.74,8.06-1.49,12.26l.95,8.41c.98,5,2.88,9.62,5.7,13.86l4.34,4.85c3.04,2.68,6.57,4.04,10.61,4.07h0Z"/>
    <path class="cls-1" d="M545.39,515.41l-.85-.77c-2.59-2.29-5.61-3.44-9.05-3.47-3.44.2-6.4,1.5-8.87,3.91-2.82,2.8-4.86,6.09-6.13,9.86-1.53,4.44-2.23,9.01-2.09,13.71.09,4.7,1.01,9.23,2.76,13.59,1.45,3.71,3.66,6.89,6.61,9.55,2.59,2.29,5.61,3.44,9.05,3.47,3.44-.2,6.4-1.5,8.87-3.91l.81-.76c2.73-2.71,4.7-5.89,5.93-9.54,1.48-4.3,2.16-8.72,2.02-13.26-.2-8.19-2.83-16.76-9.06-22.38h0Z"/>
    <path class="cls-1" d="M577.42,439.76l-.87-.43c-2.82-1.08-5.62-1.01-8.39.21-2.89,1.44-5.17,3.55-6.81,6.35l-2.35,4.92c-1.36,3.95-1.98,8.01-1.86,12.18-.03,3.19.5,6.27,1.59,9.23.63,2.77,1.79,5.32,3.45,7.65,1.78,2.71,4.15,4.72,7.11,6.01,2.82,1.08,5.62,1.01,8.39-.21l.85-.43,3.64-2.47c1.9-1.75,3.29-3.81,4.2-6.18.97-1.63,1.59-3.38,1.86-5.25.92-2.95,1.29-5.99,1.11-9.12l-.71-6.26-1.7-5.6c-.89-2.52-2.27-4.7-4.15-6.52-1.36-1.88-3.15-3.24-5.37-4.09h0Z"/>
    <path class="cls-1" d="M634.32,452.73c3.05,0,5.69-.98,7.91-2.91,2.79-1.55,4.96-3.77,6.5-6.68,2.03-3.17,3.38-6.58,4.03-10.25,1.23-3.95,1.73-8.01,1.48-12.19l-.94-8.36c-.97-4.97-2.86-9.57-5.66-13.78l-4.31-4.83c-3.02-2.66-6.53-4.01-10.55-4.05-3.05,0-5.69.98-7.91,2.91-2.79,1.55-4.96,3.77-6.5,6.68-2.03,3.17-3.38,6.58-4.03,10.25-1.23,3.95-1.73,8.01-1.48,12.19l.94,8.36c.97,4.97,2.86,9.57,5.66,13.78l4.31,4.83c3.02,2.66,6.53,4.01,10.55,4.05h0Z"/>
    <path class="cls-1" d="M654.27,544.39l.94-.45,3.67-2.49c1.91-1.76,3.32-3.83,4.22-6.22.98-1.64,1.6-3.4,1.88-5.29.93-2.97,1.3-6.03,1.12-9.18l-.71-6.3-1.71-5.63c-.89-2.54-2.29-4.73-4.18-6.56-1.37-1.89-3.17-3.26-5.41-4.12l-.96-.45c-2.85-1.08-5.66-1.01-8.45.21-2.92,1.45-5.2,3.58-6.86,6.4l-2.37,4.96c-1.37,3.97-1.99,8.07-1.87,12.27-.03,3.21.5,6.31,1.6,9.29.64,2.79,1.8,5.36,3.48,7.71,1.79,2.73,4.18,4.75,7.17,6.05,2.85,1.08,5.66,1.01,8.45-.21h0Z"/>
    <path class="cls-1" d="M598.93,577.91c-.1-.01-.2,0-.3.01l-5.41,1.25c-2.87,1.27-5.15,3.18-6.82,5.75-1.62,1.61-2.8,3.51-3.53,5.68-1.84,3.31-2.97,6.87-3.4,10.69,0,.07-.02.14-.04.21l1.9-7.57c-.01.05-.03.11-.06.16l3.11-6.51-.03.05c-2.06,3.21-3.42,6.67-4.08,10.39-1.25,4-1.75,8.12-1.5,12.35l.96,8.47,2.3,7.58c1.2,3.42,3.07,6.36,5.62,8.83,1.84,2.54,4.27,4.39,7.27,5.54l5.6,1c3.1,0,5.77-.99,8.01-2.95,1.92-.96,3.43-2.36,4.53-4.22,2.42-2.59,4.15-5.62,5.18-9.09l1.93-7.68c.77-4.27.79-8.52.06-12.75-.2-4.09-1.13-8.03-2.78-11.82l-3.44-6.38-4.37-4.89c-3.06-2.7-6.62-4.07-10.69-4.1h0Z"/>
    <path class="cls-1" d="M501.52,650.91l.13-.39c1.91-5.9,2.21-8.81,2.31-15.08l-.88-7.78c-.58-3.56-1.81-6.86-3.69-9.89-.79-2.01-1.98-3.73-3.58-5.17-1.69-2.33-3.92-4.03-6.67-5.09-1.66-.97-3.69-1.08-5.56-.93-3.78.22-7.03,1.65-9.75,4.3-3.1,3.08-5.34,6.69-6.74,10.84-1.68,4.88-2.45,9.9-2.3,15.07.1,5.17,1.11,10.15,3.03,14.94,1.6,4.07,4.02,7.57,7.26,10.49,2.85,2.51,6.16,3.79,9.95,3.82,3.78-.22,7.03-1.65,9.75-4.3,3.1-3.08,5.34-6.69,6.74-10.84h0Z"/>
    <path class="cls-1" d="M763.32,558.16c2.53,1.02,5.14,2.07,7.48,3.48l-5.05-3.07.53.34c-3.68-9.08-7.35-18.16-11.03-27.24v.52c-.04,4.23.67,8.31,2.11,12.23.84,3.67,2.37,7.05,4.58,10.15,1.7,2.86,4,5,6.9,6.42,2.33,1.84,5.04,2.69,8.13,2.55,6.22-.58,11.42-4.31,14.57-9.7,3.91-6.7,6.12-14.92,5.58-22.68l-.04-.52c.04-4.23-.66-8.3-2.1-12.22-.84-3.67-2.37-7.05-4.57-10.14l-4.35-4.88c-3.05-2.69-6.6-4.06-10.66-4.09-4.57-.79-9.25.13-13.45,2.07l-4.55,3.08c-2.37,2.18-4.11,4.75-5.24,7.72-2.61,5.48-4.04,11.84-3.71,17.94.27,5.05,1.2,10.06,3,14.8,2.03,5.3,6.45,11.06,11.89,13.25h0Z"/>
    <path class="cls-1" d="M699.99,592.33l-.12-.36c-1.46-3.72-3.67-6.91-6.63-9.57-2.6-2.29-5.62-3.45-9.08-3.48-3.45.2-6.42,1.51-8.9,3.92-2.83,2.81-4.88,6.1-6.15,9.89l-.12.37c-1.55,4.49-2.25,9.11-2.11,13.86.09,4.75,1.02,9.33,2.79,13.74,1.47,3.75,3.7,6.96,6.68,9.65,2.62,2.31,5.67,3.48,9.15,3.51,3.48-.2,6.47-1.52,8.97-3.95,2.85-2.83,4.91-6.15,6.2-9.96,1.55-4.49,2.25-9.11,2.11-13.86-.09-4.75-1.02-9.33-2.79-13.74h0Z"/>
    <path class="cls-1" d="M250.74,559.8c3.08,0,5.73-.99,7.97-2.93,2.81-1.56,4.99-3.8,6.55-6.73,2.05-3.19,3.4-6.63,4.06-10.33,1.24-3.98,1.74-8.07,1.5-12.28l-.95-8.42c-.98-5.01-2.88-9.64-5.71-13.88l-4.34-4.86c-3.04-2.69-6.58-4.04-10.63-4.08-3.08,0-5.73.99-7.97,2.93-2.81,1.56-4.99,3.8-6.55,6.73-2.05,3.19-3.4,6.63-4.06,10.33-1.24,3.98-1.74,8.07-1.5,12.28l.95,8.42c.98,5.01,2.88,9.64,5.71,13.88l4.34,4.86c3.04,2.69,6.58,4.04,10.63,4.08h0Z"/>
    <path class="cls-1" d="M701.35,441c-.4.02-.8.03-1.2.05-3.6.21-5.89,1.62-8.56,3.94-1.89,1.74-3.28,3.79-4.18,6.16-1.39,2.5-2.24,5.18-2.57,8.06l-.4,6.26c.08,4.09.88,8.02,2.4,11.81.66,2.12,1.58,4.18,3.03,5.92.28.34.57.67.86,1.01,1.86,2.84,4.35,4.93,7.44,6.29,2.96,1.13,5.88,1.05,8.78-.22,3.03-1.5,5.41-3.72,7.13-6.65,1.62-2.53,2.69-5.25,3.22-8.18.98-3.15,1.38-6.39,1.18-9.72-.09-4.37-.94-8.58-2.57-12.64-1.35-3.45-3.4-6.41-6.15-8.88-2.41-2.13-5.21-3.2-8.42-3.23h0Z"/>
    <path class="cls-1" d="M196.39,627.66c10.94,0,15.38-15.28,14.91-23.97s-4.7-23.21-16.07-23.21-15.38,15.28-14.91,23.97,4.7,23.21,16.07,23.21h0Z"/>
    <path class="cls-1" d="M726.5,344.37c2.54.47,5.2,1.19,7.78,1.05,3.01-.17,5.71-1.74,8.41-2.94,5.12-2.28,10.16-4.72,15.24-7.08,9.89-4.61,19.83-9.11,29.81-13.51,20.25-8.93,40.69-17.45,61.29-25.55,41.21-16.2,83.05-30.98,125.32-44.16,23.9-7.45,48.06-13.86,71.62-22.36,4.61-1.66,5.64-8.79,5.13-12.82-.44-3.53-2.82-10.57-7.7-9.85-22.35,3.32-43.94,9.28-65.62,15.5-21.26,6.1-42.4,12.63-63.39,19.6-42,13.93-83.28,30.28-123.82,47.98-11.43,4.99-22.81,10.11-34.12,15.37-5.66,2.63-11.34,5.21-16.92,8-2.87,1.44-6,2.79-8.64,4.62-3.28,2.27-5.5,5.78-7.78,9.01-2.71,3.85-2.93,15.98,3.41,17.15h0Z"/>
    <path class="cls-1" d="M790.27,349.58c1.8-4.63,1.24-10.89-2.32-14.56s-8.83-3.35-11.73,1.1c-3.15,4.84-3.02,11.71-.83,16.92,2.66,6.34,7.91,7.54,14.08,7.32,20.69-.75,41.3-2.22,61.93-3.99,40.93-3.52,81.75-8.11,122.47-13.52,23.47-3.12,46.42-7.22,69.44-12.74,5.06-1.21,6.05-10.02,5.56-13.9-.52-4.14-2.98-11.06-8.35-10.67-17,1.22-33.9,2.63-50.78,4.93s-33.87,4.54-50.84,6.6c-33.61,4.07-67.28,7.68-100.99,10.82-9.5.88-18.99,1.74-28.49,2.68-4.59.46-9.17.95-13.75,1.44-2.62.28-5.24.58-7.86.84-.86.08-1.71.19-2.57.24-.42.02-2.59-.39-1.23-.03l5.1,5.69-.23-.45,1.04,9.4.15-.61-1.87,5.26-.55.78-3.6,1.59.44-.09-5.02-3,.21.31c3.5,5.13,8.7,2.47,10.57-2.35h0Z"/>
    <path class="cls-1" d="M817.13,394.83c7.43,4.11,15.73,6.9,23.64,9.94s15.9,6.05,23.94,8.83c15.44,5.35,31,10.48,46.73,14.93,15.72,4.45,31.56,8.33,47.5,11.94,8.21,1.86,16.33,3.57,24.68,4.65s17.17,3.44,25.83,3.27c10.49-.21,9.59-20.63,1.53-23.92-7.61-3.1-15.86-4.41-23.75-6.67-7.9-2.27-15.78-4.36-23.76-6.38-16.17-4.09-32.22-8.69-48.21-13.44s-31.29-9.4-46.77-14.66c-7.72-2.62-15.45-5.22-23.14-7.95s-15.76-6.29-23.9-8.32c-6.56-1.63-10.42,4.5-11.33,10.3-1.05,6.6.91,14.1,7.01,17.47h0Z"/>
    <path class="cls-1" d="M254.21,312.02c-30.59-13.26-62.54-23.88-94.17-34.39-31.37-10.43-62.92-19.95-94.86-28.43-18.29-4.85-36.61-8.85-55.22-12.23-11.66-2.12-13.35,20.15-3.67,23.53,62.9,22.01,126.8,41.2,189.71,63.37,17.83,6.28,35.45,13.2,53.37,19.22,14.95,5.02,16.93-25.83,4.84-31.07h0Z"/>
    <path class="cls-1" d="M206.46,357.11c-13.71-2.43-27.32-5.05-41.19-6.43-14.06-1.4-28.14-2.42-42.25-3.17s-27.64-1.21-41.32-.81c-14.04.41-28.39-.28-42.3,1.82-11.29,1.71-10.57,23.87.62,25.27,13.71,1.71,27.63.98,41.41,2.02s28.25,1.56,42.34,2.31c27.77,1.48,55.58,3.14,83.33,4.84,6.07.37,8.28-8.64,8.17-13.14-.14-5.86-2.71-11.64-8.8-12.72h0Z"/>
    <path class="cls-1" d="M188.19,408.33c-31.33,11.8-62.12,24.25-92.27,38.86-30.39,14.72-60.06,31.17-88.65,49.19-4.5,2.84-5.76,8.61-4.7,13.63.79,3.79,4.27,9.74,9.06,7.45,60.23-28.7,120.35-58.08,181.65-84.5,9.78-4.22,6.66-29.06-5.09-24.63h0Z"/>
  </g>
</svg>