<?xml version="1.0" encoding="UTF-8"?><svg id="uuid-be3d9b39-094a-47b5-9839-53306129032c" xmlns="http://www.w3.org/2000/svg" viewBox="0 0 133.76 145.79"><g id="uuid-639f7c0e-9c06-41e5-b975-772eea1ac724"><path d="M16.08,24.04c.94-.18,5.24.45,5.82.86l.32.07.08.37c2.79,4.97-.04,12.63-6.64,11.16s-6.63-11.14.43-12.46Z" style="fill:#fac61d;"/><path d="M31.98,42.33h69.21c4.45.74,7.92,3.21,10.08,7.2,1.46,2.7,1.94,38.25,1.19,42.59-1.05,6.09-5.12,10.28-11.27,11.27-19.66,3.17-48.03-2.38-68.58,0-6.04-1.05-10.14-5.33-11.27-11.27-.8-4.2-.37-39.08,1-41.96,2.09-4.39,5.1-6.44,9.65-7.83Z" style="fill:#c9d7ee;"/><path d="M86.14,106.12c-6.71,0-13.77-.41-20.72-.81-11.3-.65-22.98-1.32-32.62-.21-.16.02-.33.01-.49-.01-6.64-1.15-11.38-5.88-12.67-12.65-.47-2.46-.51-13.04-.34-21.83.16-8.58.55-19.23,1.48-21.2,2.14-4.49,5.34-7.1,10.7-8.74.16-.05.33-.07.5-.07h69.21c.09,0,.19,0,.28.02,4.99.83,8.9,3.62,11.32,8.08.81,1.5,1.36,8.72,1.63,21.47.2,9.17.17,19.75-.26,22.24-1.18,6.85-5.93,11.59-12.7,12.68-4.69.76-9.89,1.02-15.32,1.02ZM44.83,101.06c6.74,0,13.84.41,20.8.81,12.38.71,25.18,1.45,35.29-.18,5.33-.86,8.92-4.45,9.85-9.87.75-4.38.18-38.39-1.02-41.51-1.87-3.43-4.87-5.59-8.7-6.27H32.24c-4.31,1.36-6.66,3.29-8.35,6.85-.39,1.02-.93,7.75-1.15,20.06-.18,9.9-.05,19.06.29,20.84,1.01,5.3,4.52,8.88,9.64,9.86,3.82-.43,7.92-.59,12.17-.59Z" style="fill:#2e576b;"/><path d="M97.27,90.87c6.42-1.27,4.48,8.48-.63,5.95-1.92-.95-2.18-5.4.63-5.95Z" style="fill:#33715d;"/><path d="M96.33,48.28c4.81-1.31,6.05,4.54,2.51,5.95-3.96,1.58-5.69-5.09-2.51-5.95Z" style="fill:#33715d;"/><path d="M115.86,109.23c.22-.04.45-.06.67-.07,8.12-.46,9.2,11.79,1.06,12.69-8.13.9-9.76-11.29-1.73-12.62Z" style="fill:#fac61d;"/><path d="M116.76,123.46c-4.4,0-7.15-3.32-7.64-6.86-.53-3.81,1.53-8.1,6.49-8.92h0c.28-.05.56-.08.84-.09,5.02-.29,7.96,3.45,8.28,7.29.32,3.82-1.97,7.97-6.96,8.53-.35.04-.68.06-1.01.06ZM116.12,110.78c-3.13.52-4.21,3.09-3.89,5.4.32,2.3,2.05,4.46,5.2,4.11,3.15-.35,4.37-2.84,4.18-5.15-.19-2.33-1.81-4.6-4.98-4.42-.17,0-.34.03-.51.06h0Z" style="fill:#37735f;"/><path d="M65.15,1.86c.12-.04.24-.07.37-.1,7.89-1.86,10.99,10.12,3.05,12.23s-11.19-9.83-3.42-12.13Z" style="fill:#fac61d;"/><path d="M66.75,15.8c-3.73,0-6.41-2.67-7.28-5.78-1.04-3.72.42-8.24,5.24-9.66h0c.15-.04.3-.08.45-.12,4.89-1.16,8.4,2.04,9.34,5.79.94,3.73-.66,8.18-5.53,9.48-.77.21-1.52.3-2.22.3ZM67.14,3.13c-.4,0-.81.05-1.26.15-.1.02-.19.05-.28.08,0,0,0,0,0,0-3.02.89-3.74,3.56-3.11,5.81.63,2.23,2.63,4.11,5.68,3.3,3.06-.81,3.86-3.44,3.3-5.69-.49-1.94-1.98-3.65-4.33-3.65ZM65.15,1.86h0,0Z" style="fill:#37735f;"/><path d="M65.49,131.58c7.44-1.91,11.3,10.16,3.13,12.4-7.8,2.14-11.5-10.25-3.13-12.4Z" style="fill:#fac61d;"/><path d="M66.86,145.79c-1.95,0-3.77-.74-5.18-2.16-2.11-2.11-3.01-5.43-2.24-8.27.73-2.67,2.74-4.55,5.66-5.3,4.74-1.22,8.35,2.13,9.36,5.89.96,3.61-.33,8.14-5.42,9.54-.73.2-1.46.3-2.17.3ZM67.06,132.94c-.38,0-.77.05-1.18.16h0c-2.28.59-3.12,2.01-3.41,3.09-.48,1.76.11,3.91,1.43,5.22.8.8,2.2,1.64,4.31,1.06,3.26-.9,3.77-3.64,3.22-5.71-.52-1.97-2.07-3.82-4.37-3.82ZM65.49,131.58h0,0Z" style="fill:#377360;"/><path d="M50.46,137.37c-.13,0-.27-.02-.41-.05-19.35-4.7-35.35-18.22-43.9-37.07-8.54-18.84-8.16-39.74,1.03-57.36.44-.84,1.48-1.17,2.32-.73.84.44,1.17,1.48.73,2.32-8.7,16.67-9.05,36.47-.95,54.34,8.11,17.88,23.26,30.69,41.58,35.14.92.22,1.49,1.16,1.27,2.08-.19.79-.9,1.32-1.67,1.32Z" style="fill:#37745f;"/><path d="M22.21,26.69c-.53,0-1.06-.25-1.4-.71-.56-.77-.39-1.85.38-2.41,8.77-6.37,17.54-12.32,28.43-15.25.92-.25,1.86.3,2.11,1.22.25.92-.3,1.86-1.22,2.11-10.32,2.77-18.8,8.54-27.3,14.71-.31.22-.66.33-1.01.33Z" style="fill:#37745f;"/><path d="M17.24,38.4c-.64,0-1.3-.07-1.97-.22-4.42-.98-6.35-4.71-6.29-7.97.06-3.29,2.17-7,6.78-7.86.99-.19,5.01.23,6.66.9.6.09.96.41,1.17.68h0c.23.3.32.61.35.84,1.75,3.37,1.48,7.68-.69,10.61-1.47,1.97-3.59,3.02-6,3.02ZM16.37,25.74c-2.86.54-3.91,2.78-3.94,4.53-.03,1.72.89,3.95,3.59,4.55,2.38.53,3.74-.52,4.46-1.49,1.39-1.87,1.55-4.78.39-6.99-.97-.28-3.81-.67-4.5-.6ZM22.07,26.67h0,0ZM23.97,25.05h0,0ZM22.88,23.49s0,0,0,0c0,0,0,0,0,0ZM22.69,23.37c.07.04.13.07.19.11-.06-.05-.13-.08-.19-.11Z" style="fill:#37745f;"/><path d="M84.09,137.61c-.64,0-1.25-.35-1.55-.96-.42-.85-.07-1.89.79-2.31l21.35-10.5c.85-.42,1.89-.07,2.31.79.42.85.07,1.89-.79,2.31l-21.35,10.5c-.24.12-.5.18-.76.18Z" style="fill:#37745f;"/><path d="M124.84,104.4c-.21,0-.42-.04-.63-.12-.89-.35-1.32-1.35-.97-2.23l4.99-12.67c.35-.89,1.35-1.32,2.23-.97.89.35,1.32,1.35.97,2.23l-4.99,12.67c-.27.68-.92,1.09-1.6,1.09Z" style="fill:#36745f;"/><path d="M131.71,79.74c-.06,0-.13,0-.19-.01-.95-.1-1.63-.96-1.52-1.9,3.32-29.93-18.49-60.04-47.62-65.75-.93-.18-1.54-1.09-1.36-2.02.18-.93,1.09-1.54,2.02-1.36,14.91,2.92,28.44,11.93,38.1,25.37,9.46,13.15,13.93,29.24,12.28,44.14-.1.88-.84,1.53-1.71,1.53Z" style="fill:#37745f;"/></g><path d="M40.32,79.47v-14.59c0-4.72,2.22-7.14,6.35-7.14,4.4,0,6.07,2.54,6.07,6.23v1.23c0,1.43-1.03,2.38-2.3,2.38s-2.3-.91-2.3-2.38v-.24c0-1.86-.44-2.62-1.35-2.62-1.07,0-1.63.75-1.63,2.62v14.44c0,1.86.56,2.62,1.63,2.62.95,0,1.35-.75,1.35-2.62v-.2c0-1.39.99-2.42,2.34-2.42s2.34.95,2.34,2.34v.59c0,4.24-1.94,6.9-5.99,6.9s-6.5-2.42-6.5-7.14Z" style="fill:#2b5669;"/><path d="M68.08,78.36v5.59c0,1.35-1.03,2.42-2.38,2.42s-2.38-1.07-2.38-2.42v-4.6c0-2.62-.79-3.69-2.34-3.69h-.63v8.29c0,1.35-.99,2.42-2.34,2.42s-2.34-1.07-2.34-2.42v-22.76c0-1.9.99-3.13,3.25-3.13h2.82c4.56,0,6.27,2.93,6.27,6.98v3.17c0,2.06-.52,3.97-2.1,5.23,1.71.95,2.18,2.74,2.18,4.92ZM63.4,65.27c0-2.18-.75-3.05-2.06-3.05h-.99v9.28h.83c1.51,0,2.22-1.15,2.22-3.81v-2.42Z" style="fill:#2b5669;"/><path d="M92.67,64.8v19.15c0,1.35-1.07,2.42-2.42,2.42s-2.42-1.07-2.42-2.42v-19.15c0-1.86-.55-2.62-1.63-2.62s-1.63.75-1.63,2.62v19.15c0,1.35-1.07,2.42-2.42,2.42s-2.42-1.07-2.42-2.42v-19.15c0-1.86-.56-2.62-1.63-2.62s-1.63.75-1.63,2.62v19.15c0,1.35-1.07,2.42-2.42,2.42s-2.42-1.07-2.42-2.42v-19.15c0-4.72,2.26-7.14,6.38-7.14,1.63,0,3.05.4,4.12,1.59,1.07-1.19,2.5-1.59,4.12-1.59,4.12,0,6.39,2.42,6.39,7.14Z" style="fill:#2b5669;"/></svg>