<?xml version="1.0" encoding="UTF-8"?><svg id="uuid-101dbab5-18fe-4107-bff6-d32d6a4219a3" xmlns="http://www.w3.org/2000/svg" viewBox="0 0 160 160"><g id="uuid-6c13ce74-17fc-48fc-be01-9752b9c998a8"><path d="M133.4,97.28l-3.74-29.81c-.01-.09-.01-.18,0-.27v-20.3c.01-2.24-.72-4.42-2.07-6.21.39-.52-2.75,2.07-5.52,2.07h-38.57c-3.67,0-6.82-2.61-7.51-6.21h-35.3c-5.71,0-10.34,4.63-10.34,10.34v20.32c.01.09.01.18,0,.27l-3.74,29.79c-3.97,1.54-6.59,5.36-6.6,9.62v20.69c0,5.71,4.63,10.34,10.34,10.34h99.31c5.71,0,10.34-4.63,10.34-10.34v-20.69c0-4.26-2.63-8.08-6.6-9.62ZM131.72,127.59c0,1.14-.93,2.07-2.07,2.07H30.35c-1.14,0-2.07-.93-2.07-2.07v-20.69c0-1.14.93-2.07,2.07-2.07h99.31c1.14,0,2.07.93,2.07,2.07v20.69Z" style="fill:#414042;"/><path d="M133.4,97.28l-3.74-29.81c-.01-.09-.01-.18,0-.27v-20.3c.01-2.24-.72-4.42-2.07-6.21.39-.52-2.75,2.07-5.52,2.07h-38.57c-3.67,0-6.82-2.61-7.51-6.21h0c-.13-.68-.2-1.37-.21-2.07v103.45h53.88c5.71,0,10.34-4.63,10.34-10.34v-20.69c0-4.26-2.63-8.08-6.6-9.62Z" style="fill:#231f20;"/><rect x="20" y="96.55" width="120" height="43.45" rx="21.72" ry="21.72" style="fill:#fff200;"/><path d="M129.65,27.63v6.85c0,1.59-.37,3.16-1.1,4.57-1.38,2.3-3.86,3.71-6.54,3.7h-38.52c-3.67,0-6.82-2.61-7.51-6.21h0c-.13-.68-.2-1.37-.21-2.07v-6.85c0-4.22,3.42-7.63,7.63-7.63.03,0,.06,0,.08,0h38.52c4.22,0,7.63,3.42,7.63,7.63Z" style="fill:#ffbe00;"/><path d="M75.86,34.48c0,.69.07,1.39.21,2.07h0c-.08-.47-.13-.95-.12-1.43l-.08-.64Z" style="fill:#ffbe00;"/><path d="M129.65,34.48v.64c0,1.39-.37,2.75-1.1,3.93.72-1.42,1.1-2.98,1.1-4.57Z" style="fill:#ffbe00;"/><path d="M140,104.19v28.18c0,4.22-3.42,7.63-7.63,7.63h-56.5v-43.45h56.5c4.22,0,7.63,3.42,7.63,7.63Z" style="fill:#ffbe00;"/><rect x="75.86" y="20" width="53.79" height="22.76" rx="11.38" ry="11.38" style="fill:#ffbe00;"/><path d="M88.28,119.31c0,2.29-1.85,4.14-4.14,4.14h-16.55c-2.29,0-4.14-1.85-4.14-4.14s1.85-4.14,4.14-4.14h16.55c2.29,0,4.14,1.85,4.14,4.14Z" style="fill:#414042;"/><path d="M88.28,119.31c0,2.29-1.85,4.14-4.14,4.14h-8.28v-8.28h8.28c2.29,0,4.14,1.85,4.14,4.14Z" style="fill:#231f20;"/><path d="M108.97,69.66c2.29,0,4.14,1.85,4.14,4.14s-1.85,4.14-4.14,4.14-4.14-1.85-4.14-4.14,1.85-4.14,4.14-4.14ZM108.97,82.07c2.29,0,4.14,1.85,4.14,4.14s-1.85,4.14-4.14,4.14-4.14-1.85-4.14-4.14,1.85-4.14,4.14-4.14ZM94.48,69.66c2.29,0,4.14,1.85,4.14,4.14s-1.85,4.14-4.14,4.14-4.14-1.85-4.14-4.14,1.85-4.14,4.14-4.14ZM94.48,82.07c2.29,0,4.14,1.85,4.14,4.14s-1.85,4.14-4.14,4.14-4.14-1.85-4.14-4.14,1.85-4.14,4.14-4.14ZM80,77.93c-2.29,0-4.14-1.85-4.14-4.14s1.85-4.14,4.14-4.14,4.14,1.85,4.14,4.14-1.85,4.14-4.14,4.14ZM84.14,86.21c0,2.29-1.85,4.14-4.14,4.14s-4.14-1.85-4.14-4.14,1.85-4.14,4.14-4.14,4.14,1.85,4.14,4.14Z" style="fill:#ffbe00;"/><path d="M51.03,53.1h28.97c2.29,0,4.14,1.85,4.14,4.14s-1.85,4.14-4.14,4.14h-28.97c-2.29,0-4.14-1.85-4.14-4.14s1.85-4.14,4.14-4.14Z" style="fill:#fff200;"/></g></svg>