{
	"asset":{
		"copyright":"ci.dev.br",
		"generator":"Khronos glTF Blender I/O v3.6.28",
		"version":"2.0"
	},
	"scene":0,
	"scenes":[
		{
			"name":"Scene",
			"nodes":[
				0
			]
		}
	],
	"nodes":[
		{
			"mesh":0,
			"name":"Cube",
			"translation":[
				0,
				1,
				0
			]
		}
	],
	"materials":[
		{
			"doubleSided":true,
			"name":"Material",
			"pbrMetallicRoughness":{
				"baseColorFactor":[
					0.800000011920929,
					0.800000011920929,
					0.800000011920929,
					1
				],
				"metallicFactor":0,
				"roughnessFactor":0.5
			}
		}
	],
	"meshes":[
		{
			"name":"Cube",
			"primitives":[
				{
					"attributes":{
						"POSITION":0,
						"NORMAL":1,
						"TEXCOORD_0":2
					},
					"indices":3,
					"material":0
				}
			]
		}
	],
	"accessors":[
		{
			"bufferView":0,
			"componentType":5126,
			"count":146,
			"max":[
				2.553940534591675,
				1,
				3.297581434249878
			],
			"min":[
				-2.287830114364624,
				-1,
				-4.649425983428955
			],
			"type":"VEC3"
		},
		{
			"bufferView":1,
			"componentType":5126,
			"count":146,
			"type":"VEC3"
		},
		{
			"bufferView":2,
			"componentType":5126,
			"count":146,
			"type":"VEC2"
		},
		{
			"bufferView":3,
			"componentType":5123,
			"count":348,
			"type":"SCALAR"
		}
	],
	"bufferViews":[
		{
			"buffer":0,
			"byteLength":1752,
			"byteOffset":0,
			"target":34962
		},
		{
			"buffer":0,
			"byteLength":1752,
			"byteOffset":1752,
			"target":34962
		},
		{
			"buffer":0,
			"byteLength":1168,
			"byteOffset":3504,
			"target":34962
		},
		{
			"buffer":0,
			"byteLength":696,
			"byteOffset":4672,
			"target":34963
		}
	],
	"buffers":[
		{
			"byteLength":5368,
			"uri":"data:application/octet-stream;base64,"
		}
	]
}
