<?xml version="1.0" ?><svg height="24" version="1.1" width="24" xmlns="http://www.w3.org/2000/svg" xmlns:cc="http://creativecommons.org/ns#" xmlns:dc="http://purl.org/dc/elements/1.1/" xmlns:rdf="http://www.w3.org/1999/02/22-rdf-syntax-ns#"><g transform="translate(0 -1028.4)"><path d="m2 1034.4c-1.1046 0-2 0.9-2 2v2 8 2c0 1.1 0.89543 2 2 2h16 4c1.105 0 2-0.9 2-2v-10-2c0-1.1-0.895-2-2-2h-4-12-4z" fill="#c0392b"/><path d="m2 1031.4c-1.1046 0-2 0.9-2 2v2 8 2c0 1.1 0.89543 2 2 2h16 4c1.105 0 2-0.9 2-2v-10-2c0-1.1-0.895-2-2-2h-4-12-4z" fill="#c0392b"/><path d="m2 1033.4c-1.1046 0-2 0.9-2 2v2 8 2c0 1.1 0.89543 2 2 2h16 4c1.105 0 2-0.9 2-2v-10-2c0-1.1-0.895-2-2-2h-4-12-4z" fill="#e74c3c"/><path d="m17 13c0 3.314-2.686 6-6 6-3.3137 0-6-2.686-6-6 0-3.3137 2.6863-6 6-6 3.314 0 6 2.6863 6 6z" fill="#c0392b" transform="translate(1 1029.4)"/><path d="m17 13c0 3.314-2.686 6-6 6-3.3137 0-6-2.686-6-6 0-3.3137 2.6863-6 6-6 3.314 0 6 2.6863 6 6z" fill="#ecf0f1" transform="translate(1 1028.4)"/><path d="m15 12.5c0 1.933-1.343 3.5-3 3.5s-3-1.567-3-3.5 1.343-3.5 3-3.5 3 1.567 3 3.5z" fill="#34495e" transform="matrix(1.3333 0 0 1.1429 -4 1027.1)"/><path d="m15 12.5c0 1.933-1.343 3.5-3 3.5s-3-1.567-3-3.5 1.343-3.5 3-3.5 3 1.567 3 3.5z" fill="#2c3e50" transform="matrix(1 0 0 .85714 0 1030.6)"/><path d="m14 13c0 1.105-0.895 2-2 2s-2-0.895-2-2 0.895-2 2-2 2 0.895 2 2z" fill="#34495e" transform="translate(0 1028.4)"/><path d="m13 13c0 0.552-0.448 1-1 1s-1-0.448-1-1 0.448-1 1-1 1 0.448 1 1z" fill="#3498db" transform="translate(0 1028.4)"/><path d="m25 12.5c0 0.828-0.672 1.5-1.5 1.5s-1.5-0.672-1.5-1.5 0.672-1.5 1.5-1.5 1.5 0.672 1.5 1.5z" fill="#ecf0f1" transform="matrix(.66667 0 0 .66666 -4.6667 1031)"/><rect fill="#ecf0f1" height="1" width="3" x="19" y="1036.4"/><rect fill="#c0392b" height="1" width="3" x="19" y="1035.4"/><path d="m4 2c-1.1046 0-2 0.8954-2 2h2 3 2c0-1.1046-0.8954-2-2-2h-3z" fill="#c0392b" transform="translate(0 1028.4)"/></g></svg>