<?xml version="1.0" ?><svg id="Icons_Group" overflow="hidden" version="1.1" viewBox="0 0 96 96" xmlns="http://www.w3.org/2000/svg" xmlns:xlink="http://www.w3.org/1999/xlink"><g><circle cx="78" cy="25" r="5"/><circle cx="18" cy="25" r="5"/><circle cx="58" cy="25" r="5"/><circle cx="38" cy="25" r="5"/><path d=" M 89.9 49.5 L 86.7 34.9 C 86.6 34.5 86.4 34.1 86 33.8 C 84.8 32.9 83.5 32.1 82 31.7 C 80.7 31.3 79.4 31 78 31 C 76.6 31 75.2 31.2 74 31.7 C 72.5 32.2 71.2 32.9 70 33.8 C 69.6 34.1 69.4 34.5 69.3 34.9 L 68 40.8 L 68 40.8 L 66.7 34.9 C 66.6 34.5 66.4 34.1 66 33.8 C 64.8 32.9 63.5 32.1 62 31.7 C 60.7 31.3 59.4 31 58 31 C 56.6 31 55.2 31.2 54 31.7 C 52.5 32.2 51.2 32.9 50 33.8 C 49.6 34.1 49.4 34.5 49.3 34.9 L 48 40.7 L 48 40.8 L 46.7 34.9 C 46.6 34.5 46.4 34.1 46 33.8 C 44.8 32.9 43.5 32.1 42 31.7 C 40.7 31.3 39.4 31 38 31 C 36.6 31 35.2 31.2 34 31.7 C 32.5 32.2 31.2 32.9 30 33.8 C 29.6 34.1 29.4 34.5 29.3 34.9 L 28 40.7 L 28 40.7 L 26.7 34.9 C 26.6 34.5 26.4 34.1 26 33.8 C 24.8 32.9 23.5 32.1 22 31.7 C 20.7 31.3 19.4 31 18 31 C 16.6 31 15.2 31.2 14 31.7 C 12.5 32.2 11.2 32.9 10 33.8 C 9.6 34.1 9.4 34.5 9.3 34.9 L 6.1 49.4 C 5.8 50.5 6.5 51.7 7.7 51.9 C 7.8 51.9 7.9 51.9 8 51.9 C 8.9 51.9 9.7 51.3 10 50.3 L 13 37 L 13 44.1 L 10 59 L 13 59 L 13 76 L 17 76 L 17 59 L 19 59 L 19 76 L 23 76 L 23 59 L 26 59 L 23 44.1 L 23 37 L 26 50.4 C 26.2 51.3 27 52 27.9 52 L 27.9 52 C 28.8 52 29.6 51.4 29.8 50.4 L 33 37 L 33 53 L 33 76 L 37 76 L 37 53 L 39 53 L 39 76 L 43 76 L 43 53 L 43 37 L 46 50.4 C 46.2 51.3 47 52 48 52 C 48 52 48 52 48 52 L 48 52 C 48.9 52 49.7 51.4 49.9 50.4 L 53 37 L 53 44.2 L 50 59 L 53 59 L 53 76 L 57 76 L 57 59 L 59 59 L 59 76 L 63 76 L 63 59 L 66 59 L 63 44 L 63 37 L 66 50.4 C 66.2 51.3 67 52 68 52 C 68 52 68 52 68 52 L 68 52 C 68 52 68 52 68 52 C 68.9 52 69.7 51.4 70 50.4 L 73 37 L 73 53 L 73 76 L 77 76 L 77 53 L 79 53 L 79 76 L 83 76 L 83 53 L 83 37 L 86 50.4 C 86.2 51.3 87 52 88 52 C 88.2 52 88.5 52 88.7 51.9 C 89.6 51.5 90.1 50.5 89.9 49.5 Z"/></g></svg>