<?xml version="1.0" ?><svg viewBox="0 0 64 64" xmlns="http://www.w3.org/2000/svg"><g data-name="Support-Call Center-Help-Information-Customer Service" id="Support-Call_Center-Help-Information-Customer_Service"><polygon points="24 26 24 30 22 32 20 32 18 30 18 26 24 26" style="fill:#ffc477"/><polygon points="61 49 61 53 58 53 6 53 3 53 3 49 7 49 13 49 18 49 24 49 29 49 35 49 61 49" style="fill:#a97c50"/><path d="M60.95,16.05a11.984,11.984,0,0,1-13,10.9,11.725,11.725,0,0,1-5.46-1.88L37,26l1.68-4.89a11.995,11.995,0,1,1,22.27-5.06Z" style="fill:#00ccb3"/><rect height="8" style="fill:#a97c50" width="52" x="6" y="53"/><polygon points="54 13 54 17 51 17 51 20 47 20 47 17 44 17 44 13 47 13 47 10 51 10 51 13 54 13" style="fill:#e6e7e8"/><path d="M29,49H24L22.19,35.81,23,35l-.2-.6L26,35l1.38-3.46,4.1,1.86A6,6,0,0,1,35,38.87V49Z" style="fill:#3d9ae2"/><path d="M24,26v2.32a6.958,6.958,0,0,1-6,0V26Z" style="fill:#ffb655"/><path d="M27.44,16a2.009,2.009,0,0,1-1.9-1.37L25,13l-1.87,1.4a7.982,7.982,0,0,1-4.8,1.6H14v4a7,7,0,0,0,14,0V16Z" style="fill:#ffc477"/><path d="M28,15v1h-.56a2.009,2.009,0,0,1-1.9-1.37L25,13l-1.87,1.4a7.982,7.982,0,0,1-4.8,1.6H14V14a7,7,0,0,1,14,0Z" style="fill:#57565c"/><polygon points="24 30 27.38 31.54 26 35 22.8 34.4 22 32 24 30" style="fill:#1e81ce"/><polygon points="22.19 35.81 24 49 18 49 19.81 35.81 21 37 22.19 35.81" style="fill:#ed1c24"/><polygon points="22.8 34.4 23 35 22.19 35.81 21 37 19.81 35.81 19 35 19.2 34.4 20 32 22 32 22.8 34.4" style="fill:#ed1c24"/><polygon points="20 32 19.2 34.4 16 35 14.62 31.54 18 30 20 32" style="fill:#1e81ce"/><path d="M13,49H7V38.87a6,6,0,0,1,3.52-5.47l4.1-1.86L16,35l3.2-.6L19,35l.81.81L18,49Z" style="fill:#3d9ae2"/><rect height="2" style="fill:#8b5e3c" width="52" x="6" y="53"/><rect height="2" style="fill:#ee8700" width="2" x="23" y="18"/><rect height="2" style="fill:#ee8700" width="2" x="17" y="18"/><path d="M31,16H29V12a8,8,0,0,0-16,0v4H11V12a10,10,0,0,1,20,0Z" style="fill:#ff9811"/><rect height="9" style="fill:#1e81ce" width="2" x="12" y="40"/><rect height="9" style="fill:#1e81ce" width="2" x="28" y="40"/><path d="M29,25H21V23h8a1,1,0,0,0,1-1V19h2v3A3,3,0,0,1,29,25Z" style="fill:#ff9811"/><path d="M32,16v4a1,1,0,0,1-1,1H28V15h3A1,1,0,0,1,32,16Z" style="fill:#ee8700"/><path d="M14,20v1H11a1,1,0,0,1-1-1V16a1,1,0,0,1,1-1h3v5Z" style="fill:#ee8700"/></g></svg>